<svg width="28" height="28" viewBox="0 0 28 28" fill="none" xmlns="http://www.w3.org/2000/svg">
<circle cx="14" cy="14" r="14" fill="#6DB8FF"/>
<path d="M15.5914 7.81663C18.128 7.81663 20.184 9.87263 20.184 12.4093M15.5914 10.1766C16.824 10.1766 17.824 11.176 17.824 12.4093M12.404 15.5766C13.004 16.152 13.7074 16.62 14.4847 16.952L14.8307 17.0993L15.894 16.0193C16.158 15.7513 16.54 15.6353 16.9087 15.7126L19.4847 16.252C19.9207 16.3446 20.232 16.7293 20.232 17.1746V19.0293C20.232 19.6926 19.6947 20.23 19.0314 20.23H18.4614C15.8387 20.23 13.2507 19.3613 11.2934 17.616C11.132 17.4726 10.9754 17.324 10.8227 17.172L10.8474 17.1966C10.6947 17.044 10.5467 16.8873 10.4034 16.726C8.65736 14.7693 7.7887 12.1813 7.7887 9.55863V8.98863C7.7887 8.3253 8.32603 7.78796 8.98936 7.78796H10.844C11.2894 7.78796 11.674 8.0993 11.7667 8.5353L12.3067 11.1113C12.3834 11.4793 12.268 11.862 12 12.126L10.92 13.1893L11.0674 13.5353C11.3994 14.312 11.828 14.9766 12.404 15.5766Z" stroke="white" stroke-miterlimit="10" stroke-linecap="round" stroke-linejoin="round"/>
</svg>
