<svg width="110" height="110" viewBox="0 0 110 110" fill="none" xmlns="http://www.w3.org/2000/svg">
<g filter="url(#filter0_d_10332_1561)">
<path d="M54.9941 67.7008C68.798 67.7008 79.9883 56.5749 79.9883 42.8504C79.9883 29.1259 68.798 18 54.9941 18C41.1903 18 30 29.1259 30 42.8504C30 56.5749 41.1903 67.7008 54.9941 67.7008Z" fill="white"/>
<path d="M54.9941 67.7008C68.798 67.7008 79.9883 56.5749 79.9883 42.8504C79.9883 29.1259 68.798 18 54.9941 18C41.1903 18 30 29.1259 30 42.8504C30 56.5749 41.1903 67.7008 54.9941 67.7008Z" stroke="white"/>
</g>
<path d="M53.6945 50.1975L53.674 43.9382H50.9961V41.2557H53.674V39.4673C53.674 37.0538 55.1661 35.8906 57.3155 35.8906C58.3451 35.8906 59.2299 35.9674 59.4878 36.0017V38.524L57.9971 38.5247C56.8281 38.5247 56.6018 39.0811 56.6018 39.8977V41.2557H59.9226L59.0299 43.9382H56.6018V50.1975H53.6945Z" fill="#1E2532"/>
<defs>
<filter id="filter0_d_10332_1561" x="0" y="0" width="109.988" height="109.701" filterUnits="userSpaceOnUse" color-interpolation-filters="sRGB">
<feFlood flood-opacity="0" result="BackgroundImageFix"/>
<feColorMatrix in="SourceAlpha" type="matrix" values="0 0 0 0 0 0 0 0 0 0 0 0 0 0 0 0 0 0 127 0" result="hardAlpha"/>
<feOffset dy="12"/>
<feGaussianBlur stdDeviation="15"/>
<feColorMatrix type="matrix" values="0 0 0 0 0 0 0 0 0 0 0 0 0 0 0 0 0 0 0.08 0"/>
<feBlend mode="normal" in2="BackgroundImageFix" result="effect1_dropShadow_10332_1561"/>
<feBlend mode="normal" in="SourceGraphic" in2="effect1_dropShadow_10332_1561" result="shape"/>
</filter>
</defs>
</svg>
