<svg width="20" height="20" viewBox="0 0 20 20" color="white" fill="none" xmlns="http://www.w3.org/2000/svg">
<path d="M18.862 19.8047C19.1224 20.065 19.5445 20.065 19.8048 19.8047C20.0652 19.5443 20.0652 19.1222 19.8048 18.8619L18.862 19.8047ZM17.0668 9.19999C17.0668 13.5446 13.5448 17.0667 9.20011 17.0667V18.4C14.2811 18.4 18.4001 14.281 18.4001 9.19999H17.0668ZM9.20011 17.0667C4.85545 17.0667 1.33341 13.5446 1.33341 9.19999H8.13603e-05C8.13603e-05 14.281 4.11907 18.4 9.20011 18.4V17.0667ZM1.33341 9.19999C1.33341 4.85533 4.85545 1.33329 9.20011 1.33329V-4.071e-05C4.11907 -4.071e-05 8.13603e-05 4.11895 8.13603e-05 9.19999H1.33341ZM9.20011 1.33329C13.5448 1.33329 17.0668 4.85533 17.0668 9.19999H18.4001C18.4001 4.11895 14.2811 -4.071e-05 9.20011 -4.071e-05V1.33329ZM14.862 15.8047L18.862 19.8047L19.8048 18.8619L15.8048 14.8619L14.862 15.8047Z" fill="#6DB8FF"/>
</svg>
