<svg width="78" height="36" viewBox="0 0 78 36" fill="none" xmlns="http://www.w3.org/2000/svg">
<path fill-rule="evenodd" clip-rule="evenodd" d="M4.4238 1.63248e-06C1.98063 1.63248e-06 0 1.98077 0 4.42425V19.573V24.8918V25.756C0 26.441 0.18437 27.0847 0.505802 27.6405C0.653465 23.16 4.33154 19.573 8.84773 19.573H15.108C20.5693 19.573 24.9968 15.3737 24.9968 9.91196C24.9968 4.45007 20.5693 0.0223323 15.108 0.0223323H4.87042C4.72359 0.00753877 4.57467 0 4.4238 0V1.63248e-06Z" fill="#61A5E4"/>
<path fill-rule="evenodd" clip-rule="evenodd" d="M0.506104 27.6409C1.16194 28.7745 2.38833 29.5415 3.78515 29.5415H5.06319C7.14487 29.5415 8.84803 27.8382 8.84803 25.7562V19.5732C4.33184 19.5732 0.653767 23.1602 0.506104 27.6409Z" fill="#1E1E1E"/>
<path d="M37.6815 12.9623C37.6815 12.4004 38.1371 11.9448 38.699 11.9448H42.2307C42.7927 11.9448 43.2482 12.4004 43.2482 12.9623V27.6945C43.2482 28.2564 42.7927 28.712 42.2307 28.712H38.699C38.1371 28.712 37.6815 28.2564 37.6815 27.6945V27.1694C36.5413 28.5108 34.954 29.1815 32.9196 29.1815C30.684 29.1815 28.8061 28.3431 27.2859 26.6664C25.788 24.9673 25.0391 22.8547 25.0391 20.3284C25.0391 17.8022 25.788 15.7007 27.2859 14.024C28.8061 12.3249 30.684 11.4753 32.9196 11.4753C34.954 11.4753 36.5413 12.146 37.6815 13.4874V12.9623ZM31.6118 22.9776C32.2601 23.6483 33.1097 23.9837 34.1604 23.9837C35.2111 23.9837 36.0607 23.6483 36.709 22.9776C37.3573 22.3069 37.6815 21.4239 37.6815 20.3284C37.6815 19.233 37.3573 18.3499 36.709 17.6792C36.0607 17.0085 35.2111 16.6732 34.1604 16.6732C33.1097 16.6732 32.2601 17.0085 31.6118 17.6792C30.9635 18.3499 30.6393 19.233 30.6393 20.3284C30.6393 21.4239 30.9635 22.3069 31.6118 22.9776Z" fill="#1E1E1E"/>
<path d="M56.9032 12.6981C57.0227 12.2537 57.4256 11.9448 57.8857 11.9448H61.8452C62.5452 11.9448 63.0361 12.6352 62.8063 13.2964L57.5417 28.4437C56.6474 30.97 55.3843 32.792 53.7523 33.9098C52.3297 34.8842 50.5419 35.3914 48.3888 35.4315C47.844 35.4417 47.4143 34.9892 47.4143 34.4443V31.205C47.4143 30.6431 47.871 30.1959 48.4307 30.1458C49.1248 30.0837 49.6802 29.9523 50.0971 29.7516C50.587 29.5157 51.0033 29.1252 51.3459 28.58C51.5027 28.3305 51.508 28.0191 51.3954 27.7467L45.4467 13.3509C45.1699 12.6811 45.6623 11.9448 46.3871 11.9448H50.38C50.813 11.9448 51.1985 12.2188 51.3409 12.6277L54.4901 21.6698L56.9032 12.6981Z" fill="#1E1E1E"/>
<path d="M71.729 23.5473H76.9825C77.5444 23.5473 78 24.0028 78 24.5648V27.694C78 28.256 77.5444 28.7115 76.9825 28.7115H65.3019C64.74 28.7115 64.2844 28.256 64.2844 27.694V25.2325C64.2844 25.0094 64.3577 24.7926 64.493 24.6153L70.22 17.1087H65.6373C65.0753 17.1087 64.6198 16.6531 64.6198 16.0912V12.9619C64.6198 12.3999 65.0753 11.9444 65.6373 11.9444H76.6471C77.2091 11.9444 77.6646 12.3999 77.6646 12.9619V15.4235C77.6646 15.6465 77.5914 15.8633 77.4561 16.0407L71.729 23.5473Z" fill="#1E1E1E"/>
</svg>
